<svg width="35" height="35" viewBox="0 0 35 35" fill="none" xmlns="http://www.w3.org/2000/svg">
<path fill-rule="evenodd" clip-rule="evenodd" d="M18.3648 33.9181L18.3488 33.921L18.2452 33.972L18.216 33.9778L18.1956 33.972L18.0921 33.921C18.0765 33.9161 18.0649 33.9185 18.0571 33.9283L18.0513 33.9428L18.0265 34.567L18.0338 34.5962L18.0483 34.6151L18.2 34.7231L18.2219 34.7289L18.2394 34.7231L18.391 34.6151L18.4085 34.5918L18.4144 34.567L18.3896 33.9443C18.3857 33.9287 18.3774 33.92 18.3648 33.9181ZM18.7513 33.7533L18.7323 33.7562L18.4625 33.8918L18.4479 33.9064L18.4435 33.9224L18.4698 34.5495L18.4771 34.567L18.4888 34.5772L18.7819 34.7128C18.8004 34.7177 18.8145 34.7138 18.8242 34.7012L18.83 34.6808L18.7804 33.7853C18.7756 33.7678 18.7658 33.7571 18.7513 33.7533ZM17.7085 33.7562C17.7021 33.7523 17.6944 33.751 17.6871 33.7526C17.6798 33.7543 17.6733 33.7587 17.6692 33.7649L17.6604 33.7853L17.6108 34.6808C17.6118 34.6983 17.6201 34.7099 17.6356 34.7158L17.6575 34.7128L17.9506 34.5772L17.9652 34.5656L17.971 34.5495L17.9958 33.9224L17.9915 33.9049L17.9769 33.8903L17.7085 33.7562Z" fill="white"/>
<path fill-rule="evenodd" clip-rule="evenodd" d="M15.4379 3.0624C15.9542 2.54684 16.6449 2.24348 17.3738 2.21216C18.1027 2.18085 18.8169 2.42385 19.3754 2.89323L19.5621 3.06386L22.3329 5.83323H26.25C26.9856 5.83337 27.694 6.11144 28.2332 6.61175C28.7725 7.11205 29.1027 7.79763 29.1579 8.53115L29.1667 8.7499V12.667L31.9375 15.4378C32.4535 15.9541 32.7571 16.6451 32.7884 17.3744C32.8197 18.1036 32.5765 18.8181 32.1067 19.3768L31.936 19.562L29.1652 22.3328V26.2499C29.1654 26.9857 28.8875 27.6945 28.3872 28.234C27.8869 28.7736 27.2011 29.1041 26.4673 29.1593L26.25 29.1666H22.3344L19.5635 31.9374C19.0472 32.4534 18.3562 32.757 17.627 32.7883C16.8977 32.8196 16.1832 32.5764 15.6246 32.1066L15.4394 31.9374L12.6685 29.1666H8.75C8.01416 29.1668 7.30543 28.8889 6.76587 28.3885C6.22631 27.8882 5.89582 27.2024 5.84063 26.4686L5.83334 26.2499V22.3328L3.0625 19.562C2.54654 19.0457 2.24292 18.3547 2.2116 17.6254C2.18028 16.8962 2.42354 16.1817 2.89334 15.623L3.0625 15.4378L5.83334 12.667V8.7499C5.83347 8.01431 6.11154 7.30594 6.61185 6.76669C7.11215 6.22745 7.79774 5.89715 8.53125 5.84198L8.75 5.83323H12.6671L15.4379 3.0624ZM21.9902 13.1001L15.801 19.2893L13.2227 16.7109C12.9491 16.4375 12.578 16.2839 12.1912 16.2841C11.8043 16.2842 11.4333 16.438 11.1599 16.7117C10.8864 16.9853 10.7329 17.3564 10.733 17.7432C10.7332 18.1301 10.887 18.501 11.1606 18.7745L14.6665 22.2803C14.8154 22.4294 14.9923 22.5476 15.187 22.6283C15.3817 22.7089 15.5903 22.7504 15.801 22.7504C16.0118 22.7504 16.2204 22.7089 16.4151 22.6283C16.6098 22.5476 16.7867 22.4294 16.9356 22.2803L24.0523 15.1622C24.3179 14.8871 24.4649 14.5188 24.4616 14.1364C24.4583 13.754 24.3049 13.3883 24.0345 13.1179C23.7641 12.8475 23.3984 12.6941 23.016 12.6908C22.6336 12.6875 22.2653 12.8345 21.9902 13.1001Z" fill="white"/>
</svg>
